<?xml version="1.0" standalone="no"?>
<!DOCTYPE svg PUBLIC "-//W3C//DTD SVG 20010904//EN"
 "http://www.w3.org/TR/2001/REC-SVG-20010904/DTD/svg10.dtd">
<svg version="1.0" xmlns="http://www.w3.org/2000/svg"
 width="250.000000pt" height="250.000000pt" viewBox="0 0 250.000000 250.000000"
 preserveAspectRatio="xMidYMid meet">
<metadata>
Created by potrace 1.14, written by Peter Selinger 2001-2017
</metadata>
<g transform="translate(0.000000,250.000000) scale(0.100000,-0.100000)"
fill="#000000" stroke="none">
<path d="M1167 2399 c-44 -10 -81 -28 -73 -36 5 -6 -69 -61 -118 -89 -17 -9
-44 -18 -61 -20 -18 -1 -57 -18 -89 -37 -54 -33 -156 -121 -156 -135 0 -4 -15
-17 -33 -30 -66 -45 -114 -227 -81 -310 12 -29 11 -35 -6 -52 -11 -11 -23 -20
-28 -20 -4 0 -7 -17 -6 -38 0 -20 -2 -41 -5 -47 -3 -5 -6 -24 -6 -42 -1 -17
-7 -39 -14 -47 -10 -12 -11 -19 -2 -30 17 -21 23 -52 27 -144 3 -80 2 -83 -25
-103 -53 -39 -66 -154 -25 -217 9 -13 25 -56 35 -94 33 -118 67 -166 132 -187
33 -11 37 -16 37 -47 0 -19 4 -34 9 -34 5 0 12 -15 15 -32 3 -18 29 -78 56
-132 27 -54 47 -102 45 -106 -2 -4 7 -46 20 -95 l25 -89 -73 -68 c-39 -38 -94
-79 -121 -93 l-50 -25 952 0 952 0 0 28 c0 25 -6 30 -62 51 -123 45 -174 57
-237 60 -55 2 -73 8 -117 37 -57 38 -108 90 -149 152 -30 46 -30 79 2 227 3
17 7 75 8 129 2 104 4 108 59 144 19 12 54 115 60 177 7 76 15 114 26 135 9
16 5 64 -6 82 -3 4 -11 8 -19 8 -22 0 -37 44 -23 72 4 9 4 19 -1 22 -4 3 -6
16 -4 29 3 13 -1 30 -9 38 -22 24 -37 67 -31 91 10 40 11 253 1 265 -6 7 -5
14 2 18 7 4 7 12 0 25 -5 10 -10 28 -10 40 0 12 -18 58 -40 103 -22 45 -38 87
-36 94 3 7 0 12 -7 10 -7 -1 -11 6 -11 16 1 9 -2 17 -8 17 -5 0 -6 5 -3 10 3
6 1 10 -5 10 -6 0 -22 11 -35 24 -14 14 -32 29 -40 34 -9 4 -17 17 -17 28 -2
16 -7 19 -27 16 -19 -4 -23 -2 -18 11 4 11 2 14 -8 10 -8 -3 -18 2 -21 11 -3
9 -10 14 -15 11 -4 -3 -16 -1 -26 4 -29 15 -90 41 -98 41 -6 0 -19 10 -74 61
-10 9 -26 14 -37 12 -80 -16 -170 2 -176 35 -4 18 -64 23 -121 11z"/>
<path d="M1521 2351 c-8 -5 -9 -11 -3 -15 5 -3 12 1 16 9 6 17 6 18 -13 6z"/>
</g>
</svg>
